<?xml version="1.0" encoding="UTF-8" standalone="no"?>
<!DOCTYPE svg PUBLIC "-//W3C//DTD SVG 1.1//EN"
 "http://www.w3.org/Graphics/SVG/1.1/DTD/svg11.dtd">
<!-- Generated by graphviz version 14.1.2 (20260124.0452)
 -->
<!-- Title: G Pages: 1 -->
<svg width="491pt" height="657pt"
 viewBox="0.00 0.00 491.00 657.00" xmlns="http://www.w3.org/2000/svg" xmlns:xlink="http://www.w3.org/1999/xlink">
<g id="graph0" class="graph" transform="scale(1 1) rotate(0) translate(4 653)">
<title>G</title><style>.edge>path:hover{stroke-width:8}</style>
<polygon fill="white" stroke="none" points="-4,4 -4,-653 487.17,-653 487.17,4 -4,4"/>
<!-- app_py -->
<g id="node1" class="node">
<title>app_py</title><style>.edge>path:hover{stroke-width:8}</style>
<ellipse fill="#9f5656" stroke="black" cx="264.21" cy="-18" rx="27" ry="18"/>
<text xml:space="preserve" text-anchor="middle" x="264.21" y="-14.12" font-family="Helvetica,sans-Serif" font-size="10.00" fill="#ffffff">app.py</text>
</g>
<!-- db_connection -->
<g id="node2" class="node">
<title>db_connection</title><style>.edge>path:hover{stroke-width:8}</style>
<ellipse fill="#80b34c" stroke="black" cx="116.21" cy="-127" rx="46.74" ry="18"/>
<text xml:space="preserve" text-anchor="middle" x="116.21" y="-123.12" font-family="Helvetica,sans-Serif" font-size="10.00" fill="#000000">db_connection</text>
</g>
<!-- db_connection&#45;&gt;app_py -->
<g id="edge1" class="edge">
<title>db_connection&#45;&gt;app_py</title><style>.edge>path:hover{stroke-width:8}</style>
<path fill="none" stroke="black" d="M264.21,-72C267.99,-64.52 269.08,-55.65 268.92,-47.34"/>
<polygon fill="#80b34c" stroke="black" points="272.43,-47.33 268.13,-37.65 265.45,-47.9 272.43,-47.33"/>
<path fill="none" stroke="black" d="M162.92,-124.95C199.06,-121.21 245.93,-109.17 264.21,-73"/>
</g>
<!-- flask -->
<g id="node3" class="node">
<title>flask</title><style>.edge>path:hover{stroke-width:8}</style>
<polygon fill="blue" stroke="black" points="291.21,-145 237.21,-145 237.21,-109 291.21,-109 291.21,-145"/>
<text xml:space="preserve" text-anchor="middle" x="264.21" y="-123.12" font-family="Helvetica,sans-Serif" font-size="10.00" fill="white">flask</text>
</g>
<!-- flask&#45;&gt;app_py -->
<g id="edge2" class="edge">
<title>flask&#45;&gt;app_py</title><style>.edge>path:hover{stroke-width:8}</style>
<path fill="none" stroke="black" d="M260.42,-108.86C258.91,-98.01 258.65,-84 264.21,-73"/>
</g>
<!-- flask_app -->
<g id="node4" class="node">
<title>flask_app</title><style>.edge>path:hover{stroke-width:8}</style>
<polygon fill="blue" stroke="black" points="268.09,-577 212.34,-577 212.34,-541 268.09,-541 268.09,-577"/>
<text xml:space="preserve" text-anchor="middle" x="240.21" y="-555.12" font-family="Helvetica,sans-Serif" font-size="10.00" fill="white">flask.app</text>
</g>
<!-- flask_app&#45;&gt;flask -->
<g id="edge3" class="edge">
<title>flask_app&#45;&gt;flask</title><style>.edge>path:hover{stroke-width:8}</style>
<path fill="none" stroke="black" d="M268.26,-549.87C318.17,-533.48 417.21,-491.44 417.21,-416 417.21,-416 417.21,-416 417.21,-342 417.21,-261.5 386.04,-242.61 334.21,-181 324.69,-169.68 312.32,-159.32 300.64,-150.83"/>
<polygon fill="blue" stroke="black" points="302.93,-148.16 292.73,-145.3 298.92,-153.9 302.93,-148.16"/>
</g>
<!-- flask_ctx -->
<g id="node7" class="node">
<title>flask_ctx</title><style>.edge>path:hover{stroke-width:8}</style>
<polygon fill="blue" stroke="black" points="111.21,-505 57.21,-505 57.21,-469 111.21,-469 111.21,-505"/>
<text xml:space="preserve" text-anchor="middle" x="84.21" y="-483.12" font-family="Helvetica,sans-Serif" font-size="10.00" fill="white">flask.ctx</text>
</g>
<!-- flask_app&#45;&gt;flask_ctx -->
<g id="edge4" class="edge">
<title>flask_app&#45;&gt;flask_ctx</title><style>.edge>path:hover{stroke-width:8}</style>
<path fill="none" stroke="black" d="M201.72,-540.73C177.32,-529.78 145.9,-515.68 121.7,-504.82"/>
<polygon fill="blue" stroke="black" points="200.02,-543.8 210.58,-544.7 202.89,-537.42 200.02,-543.8"/>
<polygon fill="blue" stroke="black" points="123.41,-501.75 112.85,-500.85 120.54,-508.14 123.41,-501.75"/>
</g>
<!-- flask_globals -->
<g id="node8" class="node">
<title>flask_globals</title><style>.edge>path:hover{stroke-width:8}</style>
<polygon fill="blue" stroke="black" points="237.59,-433 166.84,-433 166.84,-397 237.59,-397 237.59,-433"/>
<text xml:space="preserve" text-anchor="middle" x="202.21" y="-411.12" font-family="Helvetica,sans-Serif" font-size="10.00" fill="white">flask.globals</text>
</g>
<!-- flask_app&#45;&gt;flask_globals -->
<g id="edge5" class="edge">
<title>flask_app&#45;&gt;flask_globals</title><style>.edge>path:hover{stroke-width:8}</style>
<path fill="none" stroke="black" d="M232.61,-529.6C225.95,-504.7 216.32,-468.71 209.69,-443.94"/>
<polygon fill="blue" stroke="black" points="229.19,-530.37 235.16,-539.13 235.96,-528.56 229.19,-530.37"/>
<polygon fill="blue" stroke="black" points="213.15,-443.33 207.18,-434.57 206.39,-445.14 213.15,-443.33"/>
</g>
<!-- flask_templating -->
<g id="node12" class="node">
<title>flask_templating</title><style>.edge>path:hover{stroke-width:8}</style>
<polygon fill="blue" stroke="black" points="324.71,-217 263.71,-217 263.71,-181 324.71,-181 324.71,-217"/>
<text xml:space="preserve" text-anchor="middle" x="294.21" y="-200.75" font-family="Helvetica,sans-Serif" font-size="10.00" fill="white">flask.</text>
<text xml:space="preserve" text-anchor="middle" x="294.21" y="-189.5" font-family="Helvetica,sans-Serif" font-size="10.00" fill="white">templating</text>
</g>
<!-- flask_app&#45;&gt;flask_templating -->
<g id="edge6" class="edge">
<title>flask_app&#45;&gt;flask_templating</title><style>.edge>path:hover{stroke-width:8}</style>
<path fill="none" stroke="black" d="M272.07,-533.58C301.67,-507.87 341.21,-464.46 341.21,-416 341.21,-416 341.21,-416 341.21,-342 341.21,-300.51 322.9,-255.49 309.14,-227.51"/>
<polygon fill="blue" stroke="black" points="270.2,-530.58 264.8,-539.69 274.7,-535.94 270.2,-530.58"/>
<polygon fill="blue" stroke="black" points="312.29,-225.99 304.64,-218.67 306.05,-229.17 312.29,-225.99"/>
</g>
<!-- flask_blueprints -->
<g id="node5" class="node">
<title>flask_blueprints</title><style>.edge>path:hover{stroke-width:8}</style>
<polygon fill="blue" stroke="black" points="204.21,-217 146.21,-217 146.21,-181 204.21,-181 204.21,-217"/>
<text xml:space="preserve" text-anchor="middle" x="175.21" y="-200.75" font-family="Helvetica,sans-Serif" font-size="10.00" fill="white">flask.</text>
<text xml:space="preserve" text-anchor="middle" x="175.21" y="-189.5" font-family="Helvetica,sans-Serif" font-size="10.00" fill="white">blueprints</text>
</g>
<!-- flask_blueprints&#45;&gt;flask -->
<g id="edge7" class="edge">
<title>flask_blueprints&#45;&gt;flask</title><style>.edge>path:hover{stroke-width:8}</style>
<path fill="none" stroke="black" d="M197.21,-180.7C208.12,-172.11 221.48,-161.61 233.39,-152.24"/>
<polygon fill="blue" stroke="black" points="235.27,-155.22 240.97,-146.28 230.94,-149.71 235.27,-155.22"/>
</g>
<!-- flask_config -->
<g id="node6" class="node">
<title>flask_config</title><style>.edge>path:hover{stroke-width:8}</style>
<ellipse fill="#53b6b6" stroke="black" cx="420.21" cy="-199" rx="39.2" ry="18"/>
<text xml:space="preserve" text-anchor="middle" x="420.21" y="-195.12" font-family="Helvetica,sans-Serif" font-size="10.00" fill="#000000">flask.config</text>
</g>
<!-- flask_config&#45;&gt;flask -->
<g id="edge8" class="edge">
<title>flask_config&#45;&gt;flask</title><style>.edge>path:hover{stroke-width:8}</style>
<path fill="none" stroke="black" d="M393.04,-185.81C367.8,-174.48 330,-157.52 301.86,-144.89"/>
<polygon fill="#53b6b6" stroke="black" points="303.53,-141.81 292.98,-140.91 300.67,-148.2 303.53,-141.81"/>
</g>
<!-- flask_ctx&#45;&gt;flask -->
<g id="edge9" class="edge">
<title>flask_ctx&#45;&gt;flask</title><style>.edge>path:hover{stroke-width:8}</style>
<path fill="none" stroke="black" d="M90.21,-198C105.19,-174.1 179.56,-150.5 226.09,-137.73"/>
<polygon fill="blue" stroke="black" points="226.78,-141.17 235.52,-135.19 224.96,-134.41 226.78,-141.17"/>
<path fill="none" stroke="black" d="M75.74,-468.51C57.82,-428.99 19.83,-330.21 47.21,-253 57.35,-224.41 74.11,-225.7 90.21,-200"/>
</g>
<!-- flask_ctx&#45;&gt;flask_globals -->
<g id="edge11" class="edge">
<title>flask_ctx&#45;&gt;flask_globals</title><style>.edge>path:hover{stroke-width:8}</style>
<path fill="none" stroke="black" d="M121.05,-464.15C134.49,-456.17 149.74,-447.13 163.35,-439.05"/>
<polygon fill="blue" stroke="black" points="119.7,-460.88 112.88,-468.99 123.27,-466.9 119.7,-460.88"/>
<polygon fill="blue" stroke="black" points="164.81,-442.26 171.63,-434.14 161.24,-436.23 164.81,-442.26"/>
</g>
<!-- flask_globals&#45;&gt;flask -->
<g id="edge12" class="edge">
<title>flask_globals&#45;&gt;flask</title><style>.edge>path:hover{stroke-width:8}</style>
<path fill="none" stroke="black" d="M175.21,-270C150.44,-227.79 64.23,-241.47 90.21,-200"/>
<path fill="none" stroke="black" d="M217.21,-342C218.02,-305.73 193.57,-303.29 175.21,-272"/>
</g>
<!-- flask_globals&#45;&gt;flask_blueprints -->
<g id="edge14" class="edge">
<title>flask_globals&#45;&gt;flask_blueprints</title><style>.edge>path:hover{stroke-width:8}</style>
<path fill="none" stroke="black" d="M175.21,-270C167.98,-257.68 167.39,-241.91 168.87,-228.46"/>
<polygon fill="blue" stroke="black" points="172.28,-229.3 170.35,-218.88 165.36,-228.23 172.28,-229.3"/>
</g>
<!-- flask_helpers -->
<g id="node9" class="node">
<title>flask_helpers</title><style>.edge>path:hover{stroke-width:8}</style>
<polygon fill="blue" stroke="black" points="274.96,-289 203.46,-289 203.46,-253 274.96,-253 274.96,-289"/>
<text xml:space="preserve" text-anchor="middle" x="239.21" y="-267.12" font-family="Helvetica,sans-Serif" font-size="10.00" fill="white">flask.helpers</text>
</g>
<!-- flask_globals&#45;&gt;flask_helpers -->
<g id="edge16" class="edge">
<title>flask_globals&#45;&gt;flask_helpers</title><style>.edge>path:hover{stroke-width:8}</style>
<path fill="none" stroke="black" d="M217.21,-342C217.86,-327.78 222.14,-312.63 226.75,-300.07"/>
<polygon fill="blue" stroke="black" points="230,-301.37 230.43,-290.78 223.49,-298.79 230,-301.37"/>
</g>
<!-- flask_json -->
<g id="node10" class="node">
<title>flask_json</title><style>.edge>path:hover{stroke-width:8}</style>
<polygon fill="blue" stroke="black" points="147.21,-289 89.21,-289 89.21,-253 147.21,-253 147.21,-289"/>
<text xml:space="preserve" text-anchor="middle" x="118.21" y="-267.12" font-family="Helvetica,sans-Serif" font-size="10.00" fill="white">flask.json</text>
</g>
<!-- flask_globals&#45;&gt;flask_json -->
<g id="edge17" class="edge">
<title>flask_globals&#45;&gt;flask_json</title><style>.edge>path:hover{stroke-width:8}</style>
<path fill="none" stroke="black" d="M217.21,-342C217.91,-326.64 185.59,-306.02 157.69,-291.14"/>
<polygon fill="blue" stroke="black" points="159.52,-288.15 149.03,-286.64 156.29,-294.36 159.52,-288.15"/>
<path fill="none" stroke="black" d="M207.6,-396.66C211.56,-382.62 216.38,-362.25 217.21,-344"/>
</g>
<!-- flask_globals&#45;&gt;flask_templating -->
<g id="edge18" class="edge">
<title>flask_globals&#45;&gt;flask_templating</title><style>.edge>path:hover{stroke-width:8}</style>
<path fill="none" stroke="black" d="M217.21,-342C218.94,-304.07 265.79,-322.2 284.21,-289 294.38,-270.69 296.61,-247 296.45,-228.67"/>
<polygon fill="blue" stroke="black" points="299.95,-228.62 296.09,-218.75 292.96,-228.87 299.95,-228.62"/>
</g>
<!-- flask_wrappers -->
<g id="node13" class="node">
<title>flask_wrappers</title><style>.edge>path:hover{stroke-width:8}</style>
<polygon fill="blue" stroke="black" points="179.09,-361 99.34,-361 99.34,-325 179.09,-325 179.09,-361"/>
<text xml:space="preserve" text-anchor="middle" x="139.21" y="-339.12" font-family="Helvetica,sans-Serif" font-size="10.00" fill="white">flask.wrappers</text>
</g>
<!-- flask_globals&#45;&gt;flask_wrappers -->
<g id="edge19" class="edge">
<title>flask_globals&#45;&gt;flask_wrappers</title><style>.edge>path:hover{stroke-width:8}</style>
<path fill="none" stroke="black" d="M179.14,-388.36C173.65,-382.26 167.79,-375.75 162.3,-369.65"/>
<polygon fill="blue" stroke="black" points="176.34,-390.48 185.63,-395.57 181.54,-385.8 176.34,-390.48"/>
<polygon fill="blue" stroke="black" points="164.91,-367.32 155.62,-362.23 159.71,-372 164.91,-367.32"/>
</g>
<!-- flask_helpers&#45;&gt;flask -->
<g id="edge20" class="edge">
<title>flask_helpers&#45;&gt;flask</title><style>.edge>path:hover{stroke-width:8}</style>
<path fill="none" stroke="black" d="M242.28,-252.59C246.5,-228.61 254.15,-185.14 259.21,-156.42"/>
<polygon fill="blue" stroke="black" points="262.65,-157.06 260.94,-146.6 255.76,-155.84 262.65,-157.06"/>
</g>
<!-- flask_helpers&#45;&gt;flask_app -->
<g id="edge21" class="edge">
<title>flask_helpers&#45;&gt;flask_app</title><style>.edge>path:hover{stroke-width:8}</style>
<path fill="none" stroke="black" d="M240.49,-289.38C242.2,-313.51 245.14,-358.54 246.21,-397 247.51,-443.36 244.61,-497.21 242.4,-529.4"/>
<polygon fill="blue" stroke="black" points="238.93,-528.88 241.71,-539.1 245.91,-529.38 238.93,-528.88"/>
</g>
<!-- flask_helpers&#45;&gt;flask_blueprints -->
<g id="edge22" class="edge">
<title>flask_helpers&#45;&gt;flask_blueprints</title><style>.edge>path:hover{stroke-width:8}</style>
<path fill="none" stroke="black" d="M223.39,-252.7C215.87,-244.47 206.74,-234.48 198.45,-225.42"/>
<polygon fill="blue" stroke="black" points="201.2,-223.24 191.87,-218.22 196.04,-227.96 201.2,-223.24"/>
</g>
<!-- flask_helpers&#45;&gt;flask_templating -->
<g id="edge23" class="edge">
<title>flask_helpers&#45;&gt;flask_templating</title><style>.edge>path:hover{stroke-width:8}</style>
<path fill="none" stroke="black" d="M252.81,-252.7C259.13,-244.64 266.79,-234.89 273.8,-225.98"/>
<polygon fill="blue" stroke="black" points="276.41,-228.32 279.84,-218.29 270.91,-224 276.41,-228.32"/>
</g>
<!-- flask_json&#45;&gt;flask -->
<g id="edge25" class="edge">
<title>flask_json&#45;&gt;flask</title><style>.edge>path:hover{stroke-width:8}</style>
<path fill="none" stroke="black" d="M102.65,-252.78C91.35,-238.09 79.72,-216.75 90.21,-200"/>
</g>
<!-- flask_signals -->
<g id="node11" class="node">
<title>flask_signals</title><style>.edge>path:hover{stroke-width:8}</style>
<ellipse fill="#22e7e7" stroke="black" cx="240.21" cy="-631" rx="41.86" ry="18"/>
<text xml:space="preserve" text-anchor="middle" x="240.21" y="-627.12" font-family="Helvetica,sans-Serif" font-size="10.00" fill="#000000">flask.signals</text>
</g>
<!-- flask_signals&#45;&gt;flask -->
<g id="edge27" class="edge">
<title>flask_signals&#45;&gt;flask</title><style>.edge>path:hover{stroke-width:8}</style>
<path fill="none" stroke="black" d="M455.21,-342C444.24,-271.06 512.13,-237.79 468.21,-181 448.18,-155.1 356.46,-139.51 303.07,-132.47"/>
<polygon fill="#22e7e7" stroke="black" points="303.53,-129 293.16,-131.21 302.64,-135.95 303.53,-129"/>
</g>
<!-- flask_signals&#45;&gt;flask_app -->
<g id="edge28" class="edge">
<title>flask_signals&#45;&gt;flask_app</title><style>.edge>path:hover{stroke-width:8}</style>
<path fill="none" stroke="black" d="M240.21,-612.7C240.21,-605.41 240.21,-596.73 240.21,-588.54"/>
<polygon fill="#22e7e7" stroke="black" points="243.71,-588.62 240.21,-578.62 236.71,-588.62 243.71,-588.62"/>
</g>
<!-- flask_signals&#45;&gt;flask_ctx -->
<g id="edge29" class="edge">
<title>flask_signals&#45;&gt;flask_ctx</title><style>.edge>path:hover{stroke-width:8}</style>
<path fill="none" stroke="black" d="M222.92,-614.26C195.95,-589.71 143.62,-542.08 111.52,-512.85"/>
<polygon fill="#22e7e7" stroke="black" points="113.9,-510.29 104.15,-506.15 109.19,-515.47 113.9,-510.29"/>
</g>
<!-- flask_signals&#45;&gt;flask_helpers -->
<g id="edge30" class="edge">
<title>flask_signals&#45;&gt;flask_helpers</title><style>.edge>path:hover{stroke-width:8}</style>
<path fill="none" stroke="black" d="M455.21,-414C425.1,-344 339.91,-304.39 285.95,-285.65"/>
<polygon fill="#22e7e7" stroke="black" points="287.3,-282.41 276.7,-282.55 285.07,-289.04 287.3,-282.41"/>
<path fill="none" stroke="black" d="M270.58,-618.16C334.7,-591.02 476.34,-518.65 455.21,-416"/>
</g>
<!-- flask_signals&#45;&gt;flask_templating -->
<g id="edge31" class="edge">
<title>flask_signals&#45;&gt;flask_templating</title><style>.edge>path:hover{stroke-width:8}</style>
<path fill="none" stroke="black" d="M455.21,-342C440.44,-282.34 377.89,-240.62 335.25,-218.48"/>
<polygon fill="#22e7e7" stroke="black" points="337.01,-215.45 326.5,-214.09 333.86,-221.7 337.01,-215.45"/>
<path fill="none" stroke="black" d="M455.21,-414C451.46,-383.12 459.97,-374.75 455.21,-344"/>
</g>
<!-- flask_templating&#45;&gt;flask -->
<g id="edge32" class="edge">
<title>flask_templating&#45;&gt;flask</title><style>.edge>path:hover{stroke-width:8}</style>
<path fill="none" stroke="black" d="M286.8,-180.7C283.56,-173.15 279.69,-164.12 276.08,-155.68"/>
<polygon fill="blue" stroke="black" points="279.29,-154.31 272.14,-146.5 272.86,-157.07 279.29,-154.31"/>
</g>
<!-- flask_wrappers&#45;&gt;flask -->
<g id="edge34" class="edge">
<title>flask_wrappers&#45;&gt;flask</title><style>.edge>path:hover{stroke-width:8}</style>
<path fill="none" stroke="black" d="M61.21,-270C60.48,-236.33 72.33,-228.54 90.21,-200"/>
<path fill="none" stroke="black" d="M101.05,-324.74C81.52,-313.06 61.72,-295.47 61.21,-272"/>
</g>
<!-- flask_wrappers&#45;&gt;flask_app -->
<g id="edge35" class="edge">
<title>flask_wrappers&#45;&gt;flask_app</title><style>.edge>path:hover{stroke-width:8}</style>
<path fill="none" stroke="black" d="M139.21,-416C129.53,-468.51 181.21,-516.11 214.24,-540.61"/>
</g>
<!-- flask_wrappers&#45;&gt;flask_blueprints -->
<g id="edge36" class="edge">
<title>flask_wrappers&#45;&gt;flask_blueprints</title><style>.edge>path:hover{stroke-width:8}</style>
<path fill="none" stroke="black" d="M61.21,-270C60.43,-234.22 101.89,-216.15 135.02,-207.44"/>
<polygon fill="blue" stroke="black" points="135.49,-210.93 144.4,-205.18 133.85,-204.12 135.49,-210.93"/>
</g>
<!-- flask_wrappers&#45;&gt;flask_ctx -->
<g id="edge37" class="edge">
<title>flask_wrappers&#45;&gt;flask_ctx</title><style>.edge>path:hover{stroke-width:8}</style>
<path fill="none" stroke="black" d="M140.95,-361.42C141.76,-372.78 142.25,-388.19 140.76,-402.94"/>
<polygon fill="blue" stroke="black" points="137.34,-402.11 139.42,-412.5 144.27,-403.08 137.34,-402.11"/>
<path fill="none" stroke="black" d="M139.21,-416C135.31,-437.13 119.43,-455.95 105.73,-468.74"/>
</g>
<!-- flask_wrappers&#45;&gt;flask_helpers -->
<g id="edge39" class="edge">
<title>flask_wrappers&#45;&gt;flask_helpers</title><style>.edge>path:hover{stroke-width:8}</style>
<path fill="none" stroke="black" d="M173.24,-318.18C183.62,-310.92 195.02,-302.93 205.39,-295.68"/>
<polygon fill="blue" stroke="black" points="171.61,-315.05 165.43,-323.65 175.63,-320.78 171.61,-315.05"/>
<polygon fill="blue" stroke="black" points="207.13,-298.73 213.31,-290.13 203.11,-293 207.13,-298.73"/>
</g>
<!-- flask_wrappers&#45;&gt;flask_json -->
<g id="edge40" class="edge">
<title>flask_wrappers&#45;&gt;flask_json</title><style>.edge>path:hover{stroke-width:8}</style>
<path fill="none" stroke="black" d="M130.76,-313.81C129.38,-309.24 127.96,-304.5 126.59,-299.93"/>
<polygon fill="blue" stroke="black" points="127.36,-314.67 133.59,-323.25 134.06,-312.66 127.36,-314.67"/>
<polygon fill="blue" stroke="black" points="130,-299.13 123.78,-290.55 123.3,-301.14 130,-299.13"/>
</g>
<!-- psycopg -->
<g id="node14" class="node">
<title>psycopg</title><style>.edge>path:hover{stroke-width:8}</style>
<ellipse fill="#7f40c0" stroke="black" cx="31.21" cy="-199" rx="31.21" ry="18"/>
<text xml:space="preserve" text-anchor="middle" x="31.21" y="-195.12" font-family="Helvetica,sans-Serif" font-size="10.00" fill="#ffffff">psycopg</text>
</g>
<!-- psycopg&#45;&gt;db_connection -->
<g id="edge41" class="edge">
<title>psycopg&#45;&gt;db_connection</title><style>.edge>path:hover{stroke-width:8}</style>
<path fill="none" stroke="black" d="M48.41,-183.83C59.84,-174.42 75.11,-161.85 88.27,-151.01"/>
<polygon fill="#7f40c0" stroke="black" points="90.3,-153.88 95.79,-144.82 85.85,-148.47 90.3,-153.88"/>
</g>
</g>
</svg>
